STARTFONT 2.1
FONT -Fondu-Geo 579-Italic-Medium-R-Normal--24-230-75-75-P-383-MacRoman-1
SIZE 23 75 75
FONTBOUNDINGBOX 287 31 -4 -6
COMMENT Created by Fondu from a mac NFNT/FONT resource
STARTPROPERTIES 17
FOUNDRY "Fondu"
FAMILY_NAME "Geo 579-Italic"
WEIGHT_NAME "Medium"
SLANT "R"
SETWIDTH_NAME "Normal"
ADD_STYLE_NAME ""
PIXEL_SIZE 24
POINT_SIZE 230
RESOLUTION_X 75
RESOLUTION_Y 75
SPACING "P"
AVERAGE_WIDTH 383
CHARSET_REGISTRY "MacRoman"
CHARSET_ENCODING "1"
FONT_ASCENT 25
FONT_DESCENT 6
FACE_NAME "Geo 579-Italic"
ENDPROPERTIES
CHARS 239
STARTCHAR Eth
ENCODING 1
SWIDTH 736 0
DWIDTH 18 0
BBX 17 18 0 0
BITMAP
0FF000
0FFC00
0C1E00
1C0700
180780
180380
180380
180380
FF8380
300300
300700
300700
700E00
701C00
603C00
60F000
7FE000
FF0000
ENDCHAR
STARTCHAR eth
ENCODING 2
SWIDTH 606 0
DWIDTH 15 0
BBX 13 18 0 0
BITMAP
0208
07F0
01C0
06E0
0870
07B0
1FF8
3878
7038
6038
E038
C038
C030
C070
E0E0
71C0
7F80
1E00
ENDCHAR
STARTCHAR Lslash
ENCODING 3
SWIDTH 500 0
DWIDTH 255 0
BBX 0 0 -1 -6
BITMAP
ENDCHAR
STARTCHAR lslash
ENCODING 4
SWIDTH 500 0
DWIDTH 255 0
BBX 0 0 -1 -6
BITMAP
ENDCHAR
STARTCHAR Scaron
ENCODING 5
SWIDTH 616 0
DWIDTH 15 0
BBX 14 24 0 0
BITMAP
0108
01B0
01E0
00C0
0000
03E0
0FF8
1C38
183C
301C
3018
3000
3800
1E00
0FC0
03E0
00F0
0070
0070
C070
E0E0
E1C0
7F80
3E00
ENDCHAR
STARTCHAR scaron
ENCODING 6
SWIDTH 468 0
DWIDTH 11 0
BBX 11 18 0 0
BITMAP
0C60
04C0
0780
0700
0000
0F80
3FC0
30C0
60C0
6000
7C00
3F00
0780
0180
C180
C380
FF00
7C00
ENDCHAR
STARTCHAR Yacute
ENCODING 7
SWIDTH 613 0
DWIDTH 15 0
BBX 15 24 1 0
BITMAP
0070
00C0
0180
0300
0000
0002
E00C
7018
7038
3070
3060
38C0
19C0
1B80
1F00
0E00
0E00
0C00
0C00
1C00
1C00
1800
1800
1800
ENDCHAR
STARTCHAR yacute
ENCODING 8
SWIDTH 556 0
DWIDTH 13 0
BBX 14 23 1 -5
BITMAP
0060
00C0
0180
0300
0000
0004
7018
7038
7030
3060
30E0
38C0
3980
1B80
1B00
1E00
1E00
1C00
1800
3800
3000
6000
E000
ENDCHAR
STARTCHAR char000a
ENCODING 10
SWIDTH 500 0
DWIDTH 255 0
BBX 0 0 -1 -6
BITMAP
ENDCHAR
STARTCHAR Thorn
ENCODING 11
SWIDTH 560 0
DWIDTH 13 0
BBX 13 18 0 0
BITMAP
0C00
1C00
1C00
1FC0
1FF0
1870
3838
3838
3038
3038
3070
7070
71E0
7FC0
7F00
6000
E000
C000
ENDCHAR
STARTCHAR thorn
ENCODING 12
SWIDTH 664 0
DWIDTH 16 0
BBX 16 23 -1 -5
BITMAP
0700
0600
0600
0600
0E00
0C7C
0DFE
0F0F
1E07
1C03
1803
1803
1803
3806
380E
3C1C
37F8
73E0
6000
6000
6000
6000
E000
ENDCHAR
STARTCHAR Zcaron
ENCODING 14
SWIDTH 500 0
DWIDTH 255 0
BBX 0 0 -2 -6
BITMAP
ENDCHAR
STARTCHAR zcaron
ENCODING 15
SWIDTH 500 0
DWIDTH 255 0
BBX 0 0 -2 -6
BITMAP
ENDCHAR
STARTCHAR char0010
ENCODING 16
SWIDTH 500 0
DWIDTH 255 0
BBX 0 0 -2 -6
BITMAP
ENDCHAR
STARTCHAR char0011
ENCODING 17
SWIDTH 500 0
DWIDTH 255 0
BBX 0 0 -2 -6
BITMAP
ENDCHAR
STARTCHAR char0012
ENCODING 18
SWIDTH 500 0
DWIDTH 255 0
BBX 0 0 -2 -6
BITMAP
ENDCHAR
STARTCHAR char0013
ENCODING 19
SWIDTH 500 0
DWIDTH 255 0
BBX 0 0 -2 -6
BITMAP
ENDCHAR
STARTCHAR char0014
ENCODING 20
SWIDTH 500 0
DWIDTH 255 0
BBX 0 0 -2 -6
BITMAP
ENDCHAR
STARTCHAR onehalf
ENCODING 21
SWIDTH 867 0
DWIDTH 21 0
BBX 18 18 2 0
BITMAP
080300
380600
580400
100C00
101800
303000
306000
204000
20C780
2188C0
4318C0
060080
060100
0C0200
180600
300C00
601800
E03F00
ENDCHAR
STARTCHAR onequarter
ENCODING 22
SWIDTH 867 0
DWIDTH 21 0
BBX 17 18 2 0
BITMAP
080300
380600
500C00
101800
101800
303000
306000
20C000
208080
218180
630300
060700
0C0D00
0C1900
183300
307F80
600200
C00600
ENDCHAR
STARTCHAR onesuperior
ENCODING 23
SWIDTH 367 0
DWIDTH 9 0
BBX 5 11 2 7
BITMAP
08
70
D0
30
30
30
20
20
60
60
60
ENDCHAR
STARTCHAR threequarters
ENCODING 24
SWIDTH 868 0
DWIDTH 21 0
BBX 19 18 1 0
BITMAP
3F80C0
030180
060300
0C0600
1E0400
230C00
031800
023000
C66020
786040
00C0C0
018140
030240
0606C0
060CC0
0C1FE0
180080
300180
ENDCHAR
STARTCHAR threesuperior
ENCODING 25
SWIDTH 367 0
DWIDTH 9 0
BBX 9 11 0 7
BITMAP
3F80
0200
0400
0800
1E00
2300
0300
0300
0200
C600
7800
ENDCHAR
STARTCHAR twosuperior
ENCODING 26
SWIDTH 367 0
DWIDTH 9 0
BBX 9 11 -1 7
BITMAP
0F00
1180
3180
0100
0300
0600
0C00
1800
3000
6000
FE00
ENDCHAR
STARTCHAR brokenbar
ENCODING 27
SWIDTH 500 0
DWIDTH 12 0
BBX 7 21 3 -4
BITMAP
06
0C
0C
0C
0C
0C
18
18
18
00
00
00
30
30
30
60
60
60
60
60
C0
ENDCHAR
STARTCHAR minus
ENCODING 28
SWIDTH 319 0
DWIDTH 8 0
BBX 7 2 1 5
BITMAP
7E
FC
ENDCHAR
STARTCHAR multiply
ENCODING 29
SWIDTH 833 0
DWIDTH 20 0
BBX 16 14 2 0
BITMAP
0802
3807
1C0E
0E18
0630
03E0
03C0
03C0
07E0
0C60
1870
7038
E01C
4008
ENDCHAR
STARTCHAR char001e
ENCODING 30
SWIDTH 500 0
DWIDTH 255 0
BBX 0 0 -2 -6
BITMAP
ENDCHAR
STARTCHAR char001f
ENCODING 31
SWIDTH 500 0
DWIDTH 255 0
BBX 0 0 -2 -6
BITMAP
ENDCHAR
STARTCHAR space
ENCODING 32
SWIDTH 278 0
DWIDTH 7 0
BBX 0 0 0 -6
BITMAP
ENDCHAR
STARTCHAR exclam
ENCODING 33
SWIDTH 278 0
DWIDTH 7 0
BBX 7 18 0 0
BITMAP
0E
0C
0C
0C
1C
1C
18
18
38
38
30
30
30
70
00
60
E0
E0
ENDCHAR
STARTCHAR quotedbl
ENCODING 34
SWIDTH 314 0
DWIDTH 8 0
BBX 7 7 0 10
BITMAP
66
66
64
6C
4C
CC
CC
ENDCHAR
STARTCHAR numbersign
ENCODING 35
SWIDTH 769 0
DWIDTH 18 0
BBX 19 17 0 0
BITMAP
0038C0
003180
007180
006300
00C700
0FFFE0
1FFFC0
038C00
031800
061800
7FFF00
FFFE00
1C6000
18C000
38C000
318000
638000
ENDCHAR
STARTCHAR dollar
ENCODING 36
SWIDTH 556 0
DWIDTH 13 0
BBX 12 21 0 -2
BITMAP
0080
0080
07E0
0FF0
1930
3130
3130
3300
3B00
1F00
0FC0
07E0
06E0
0460
C460
CCC0
EDC0
7F80
3E00
0800
1800
ENDCHAR
STARTCHAR percent
ENCODING 37
SWIDTH 875 0
DWIDTH 21 0
BBX 18 18 2 0
BITMAP
1E0300
3F0600
630400
630C00
431800
C71000
C63000
7C6000
38C000
00C780
018F80
0319C0
0238C0
063180
0C3180
083180
183F00
301E00
ENDCHAR
STARTCHAR ampersand
ENCODING 38
SWIDTH 685 0
DWIDTH 16 0
BBX 16 18 0 0
BITMAP
00F0
01F8
0318
0318
0338
0370
03E0
07C0
0FC0
3DC1
70E7
606E
C07C
C070
C0F8
E3F8
7F1C
3C1C
ENDCHAR
STARTCHAR quotesingle
ENCODING 39
SWIDTH 163 0
DWIDTH 4 0
BBX 4 7 0 10
BITMAP
30
60
60
60
60
60
C0
ENDCHAR
STARTCHAR parenleft
ENCODING 40
SWIDTH 398 0
DWIDTH 10 0
BBX 9 24 2 -5
BITMAP
0100
0380
0700
0E00
1C00
1800
3800
3000
7000
6000
6000
6000
C000
C000
C000
C000
C000
C000
C000
E000
6000
6000
7000
2000
ENDCHAR
STARTCHAR parenright
ENCODING 41
SWIDTH 398 0
DWIDTH 10 0
BBX 9 24 -1 -5
BITMAP
0200
0700
0300
0300
0380
0180
0180
0180
0180
0180
0180
0180
0380
0300
0300
0700
0600
0E00
0C00
1C00
3800
7000
E000
4000
ENDCHAR
STARTCHAR asterisk
ENCODING 42
SWIDTH 500 0
DWIDTH 12 0
BBX 11 10 1 9
BITMAP
0700
0600
4620
74E0
FFE0
0C00
1E00
3300
6380
2200
ENDCHAR
STARTCHAR plus
ENCODING 43
SWIDTH 833 0
DWIDTH 20 0
BBX 15 14 3 0
BITMAP
00C0
00C0
0180
0180
0180
0180
7FFE
FFFE
0300
0300
0300
0300
0600
0600
ENDCHAR
STARTCHAR comma
ENCODING 44
SWIDTH 278 0
DWIDTH 7 0
BBX 6 7 0 -4
BITMAP
08
1C
38
30
60
60
C0
ENDCHAR
STARTCHAR hyphen
ENCODING 45
SWIDTH 319 0
DWIDTH 8 0
BBX 7 2 1 5
BITMAP
7E
FC
ENDCHAR
STARTCHAR period
ENCODING 46
SWIDTH 278 0
DWIDTH 7 0
BBX 3 3 2 0
BITMAP
60
E0
C0
ENDCHAR
STARTCHAR slash
ENCODING 47
SWIDTH 278 0
DWIDTH 7 0
BBX 12 21 -3 -2
BITMAP
0030
0060
0060
00C0
00C0
0080
0180
0100
0300
0200
0600
0400
0C00
0800
1800
1000
3000
3000
6000
6000
C000
ENDCHAR
STARTCHAR zero
ENCODING 48
SWIDTH 556 0
DWIDTH 13 0
BBX 13 18 0 0
BITMAP
03E0
0FF0
1C38
3818
3018
7018
7018
6030
6030
6030
6030
C070
C070
C060
C0E0
E1C0
7F80
3E00
ENDCHAR
STARTCHAR one
ENCODING 49
SWIDTH 556 0
DWIDTH 13 0
BBX 7 18 3 0
BITMAP
02
0E
3C
7C
CC
1C
18
18
18
18
38
30
30
30
30
70
60
60
ENDCHAR
STARTCHAR two
ENCODING 50
SWIDTH 556 0
DWIDTH 13 0
BBX 14 18 -1 0
BITMAP
01F0
03FC
071C
0E0C
0C0C
001C
0018
0030
0070
00E0
01C0
0380
0700
0E00
1C00
1800
3FE0
FFE0
ENDCHAR
STARTCHAR three
ENCODING 51
SWIDTH 556 0
DWIDTH 13 0
BBX 14 18 0 0
BITMAP
0FFC
0FF8
0030
0060
00C0
0180
0300
07E0
0DE0
1070
0030
0030
0030
0060
6060
F1C0
7F80
1E00
ENDCHAR
STARTCHAR four
ENCODING 52
SWIDTH 556 0
DWIDTH 13 0
BBX 13 18 0 0
BITMAP
0008
0010
0030
0070
00F0
01B0
03E0
0760
0660
0C60
1860
30C0
7FF0
FFF0
00C0
0180
0180
0180
ENDCHAR
STARTCHAR five
ENCODING 53
SWIDTH 556 0
DWIDTH 13 0
BBX 13 18 0 0
BITMAP
07F8
0FF8
0C00
0C00
0C00
0C00
1800
1FC0
1FE0
1070
0030
0030
0030
0070
6060
F1C0
7F80
1F00
ENDCHAR
STARTCHAR six
ENCODING 54
SWIDTH 556 0
DWIDTH 13 0
BBX 12 18 0 0
BITMAP
0030
0060
00C0
0180
0300
0700
0E00
1FC0
3FE0
7870
6030
E030
C030
C070
C060
E1C0
7F80
3E00
ENDCHAR
STARTCHAR seven
ENCODING 55
SWIDTH 556 0
DWIDTH 13 0
BBX 14 18 1 0
BITMAP
1FFC
1FF8
0030
0070
0060
00C0
01C0
0180
0380
0300
0600
0E00
0C00
1800
3800
3000
6000
E000
ENDCHAR
STARTCHAR eight
ENCODING 56
SWIDTH 556 0
DWIDTH 13 0
BBX 13 18 0 0
BITMAP
03E0
0FF0
1C38
1818
3818
3830
38E0
1FC0
1FE0
30E0
6060
E060
C060
C060
C0E0
E1C0
7F80
3E00
ENDCHAR
STARTCHAR nine
ENCODING 57
SWIDTH 556 0
DWIDTH 13 0
BBX 12 18 1 0
BITMAP
07C0
0FE0
1870
3030
7030
6030
6070
6060
70E0
3FC0
1F80
0300
0600
0E00
1C00
3800
7000
E000
ENDCHAR
STARTCHAR colon
ENCODING 58
SWIDTH 278 0
DWIDTH 7 0
BBX 6 13 1 0
BITMAP
1C
1C
18
00
00
00
00
00
00
00
60
E0
E0
ENDCHAR
STARTCHAR semicolon
ENCODING 59
SWIDTH 278 0
DWIDTH 7 0
BBX 8 17 -1 -4
BITMAP
07
07
06
00
00
00
00
00
00
00
18
1C
38
30
60
60
C0
ENDCHAR
STARTCHAR less
ENCODING 60
SWIDTH 833 0
DWIDTH 20 0
BBX 16 14 3 0
BITMAP
0001
000F
007E
01F0
0FC0
3E00
F800
F000
7C00
1F80
03E0
00F8
0038
0008
ENDCHAR
STARTCHAR equal
ENCODING 61
SWIDTH 833 0
DWIDTH 20 0
BBX 16 7 2 4
BITMAP
3FFF
7FFF
0000
0000
0000
FFFE
FFFC
ENDCHAR
STARTCHAR greater
ENCODING 62
SWIDTH 833 0
DWIDTH 20 0
BBX 16 14 2 0
BITMAP
1000
1C00
1F00
07C0
01F8
007E
000F
001F
007C
03F0
0F80
7E00
F000
8000
ENDCHAR
STARTCHAR question
ENCODING 63
SWIDTH 491 0
DWIDTH 12 0
BBX 10 19 2 0
BITMAP
1F00
3F80
73C0
61C0
C1C0
01C0
0380
0700
0E00
1800
3000
3000
6000
6000
0000
0000
6000
E000
C000
ENDCHAR
STARTCHAR at
ENCODING 64
SWIDTH 1000 0
DWIDTH 24 0
BBX 23 21 1 -4
BITMAP
001FC0
007FF0
01C038
07000C
0C0006
183CC6
30E386
61C386
618306
43030C
C3060C
C30618
C70E30
C71C70
C3BFE0
C3E780
600000
7000C0
3C0780
0FFE00
03F800
ENDCHAR
STARTCHAR A
ENCODING 65
SWIDTH 727 0
DWIDTH 17 0
BBX 18 18 -2 0
BITMAP
000C00
001C00
003C00
003E00
006E00
00E600
00C600
01C700
038700
030700
070300
0E0300
0FFF80
1FFF80
380380
300380
700180
E001C0
ENDCHAR
STARTCHAR B
ENCODING 66
SWIDTH 620 0
DWIDTH 15 0
BBX 13 18 0 0
BITMAP
0FF0
0FF8
0C38
0C18
1C18
1C18
1818
1870
3FE0
3FF0
3838
3018
7018
7018
7030
6070
7FE0
FF80
ENDCHAR
STARTCHAR C
ENCODING 67
SWIDTH 750 0
DWIDTH 18 0
BBX 18 19 1 0
BITMAP
00FE00
03FF80
0783C0
0E0100
1C0000
380000
700000
700000
600000
E00000
E00000
E00000
E00000
E00000
700000
700400
3C1E00
1FFC00
07E000
ENDCHAR
STARTCHAR D
ENCODING 68
SWIDTH 736 0
DWIDTH 18 0
BBX 17 18 0 0
BITMAP
0FF000
0FFC00
1C1E00
1C0700
180780
180380
180380
380380
380380
300380
300700
300700
700E00
600C00
603C00
60F000
FFE000
FF0000
ENDCHAR
STARTCHAR E
ENCODING 69
SWIDTH 569 0
DWIDTH 14 0
BBX 14 18 0 0
BITMAP
0FFC
0FF8
0C00
1C00
1C00
1800
1800
3800
3FF0
3FF0
3000
3000
7000
7000
6000
6000
7FC0
FFC0
ENDCHAR
STARTCHAR F
ENCODING 70
SWIDTH 551 0
DWIDTH 13 0
BBX 14 18 0 0
BITMAP
0FFC
0FF8
0C00
1C00
1C00
1800
1800
3800
3FF0
3FF0
3000
3000
7000
7000
6000
6000
6000
E000
ENDCHAR
STARTCHAR G
ENCODING 71
SWIDTH 875 0
DWIDTH 21 0
BBX 20 19 1 0
BITMAP
00FE00
03FF80
0783C0
0E0180
1C0000
380000
300000
700000
600000
601FF0
E03FE0
E00060
E000E0
E001C0
700180
700700
3C1E00
1FFC00
07F000
ENDCHAR
STARTCHAR H
ENCODING 72
SWIDTH 775 0
DWIDTH 19 0
BBX 19 18 0 0
BITMAP
0E00E0
0C00C0
0C00C0
1C00C0
1C01C0
1801C0
180180
1FFF80
3FFF80
300380
300300
300300
700300
700700
600700
600600
600600
E00E00
ENDCHAR
STARTCHAR I
ENCODING 73
SWIDTH 278 0
DWIDTH 7 0
BBX 7 18 0 0
BITMAP
0E
0C
0C
1C
1C
1C
18
18
38
38
30
30
70
70
70
60
60
E0
ENDCHAR
STARTCHAR J
ENCODING 74
SWIDTH 477 0
DWIDTH 11 0
BBX 13 18 -1 0
BITMAP
0FF8
0FF0
0030
0030
0070
0070
0060
0060
00E0
00E0
00C0
00C0
00C0
01C0
0380
0700
7E00
F800
ENDCHAR
STARTCHAR K
ENCODING 75
SWIDTH 655 0
DWIDTH 16 0
BBX 17 18 0 0
BITMAP
0C0780
0C0E00
1C1C00
1C3800
187000
18E000
19C000
3B0000
3E0000
3E0000
370000
370000
738000
71C000
61E000
60E000
E07000
E03800
ENDCHAR
STARTCHAR L
ENCODING 76
SWIDTH 481 0
DWIDTH 12 0
BBX 10 18 0 0
BITMAP
0E00
0C00
0C00
1C00
1C00
1C00
1800
1800
3800
3800
3000
3000
7000
7000
7000
6000
7FC0
FF80
ENDCHAR
STARTCHAR M
ENCODING 77
SWIDTH 993 0
DWIDTH 24 0
BBX 24 18 0 0
BITMAP
0E0007
0E000E
0E001E
1F001E
1B0036
1B007E
1B80EC
3B80CC
39818C
31C39C
31C71C
30C618
70EC18
60F838
607838
607030
E02030
E02030
ENDCHAR
STARTCHAR N
ENCODING 78
SWIDTH 773 0
DWIDTH 19 0
BBX 19 18 0 0
BITMAP
0E00E0
0E00C0
0F00C0
1B00C0
1B81C0
1981C0
19C180
18C180
38E180
306380
307300
303300
703B00
701B00
601F00
600E00
600E00
E00600
ENDCHAR
STARTCHAR O
ENCODING 79
SWIDTH 891 0
DWIDTH 21 0
BBX 20 19 1 0
BITMAP
007E00
03FF80
0783C0
0E00E0
1C00E0
380070
700070
700070
600070
E00070
E00060
E000E0
E000E0
E001C0
700380
700700
3C1E00
1FFC00
07F000
ENDCHAR
STARTCHAR P
ENCODING 80
SWIDTH 560 0
DWIDTH 13 0
BBX 14 18 0 0
BITMAP
0FE0
0FF8
1C38
1C1C
181C
181C
181C
3838
3838
30F0
3FE0
3F80
7000
6000
6000
6000
E000
E000
ENDCHAR
STARTCHAR Q
ENCODING 81
SWIDTH 891 0
DWIDTH 21 0
BBX 20 19 1 0
BITMAP
007E00
03FF80
0783C0
0E00E0
1C00E0
380070
300070
700070
600070
E00070
E00060
E000E0
E004E0
E00DC0
700F80
780700
3C1F80
1FFF80
07E180
ENDCHAR
STARTCHAR R
ENCODING 82
SWIDTH 616 0
DWIDTH 15 0
BBX 14 18 0 0
BITMAP
0FE0
0FF8
1C3C
181C
181C
181C
3818
3838
3070
3FE0
3F80
7E00
7700
6300
6380
61C0
E0E0
C0E0
ENDCHAR
STARTCHAR S
ENCODING 83
SWIDTH 616 0
DWIDTH 15 0
BBX 14 19 0 0
BITMAP
03E0
0FF8
1C38
183C
301C
301C
3000
3800
1E00
0FC0
03E0
00F0
0070
0070
C070
E0E0
E1C0
7F80
3E00
ENDCHAR
STARTCHAR T
ENCODING 84
SWIDTH 507 0
DWIDTH 12 0
BBX 13 18 2 0
BITMAP
7FF8
FFF0
0600
0600
0E00
0E00
0C00
0C00
0C00
1C00
1C00
1800
1800
3800
3800
3000
3000
3000
ENDCHAR
STARTCHAR U
ENCODING 85
SWIDTH 748 0
DWIDTH 18 0
BBX 17 18 1 0
BITMAP
380380
300300
300300
300700
700700
600700
600600
600600
600E00
E00E00
C00C00
C00C00
C01C00
C01800
E03800
70F000
7FE000
1F8000
ENDCHAR
STARTCHAR V
ENCODING 86
SWIDTH 639 0
DWIDTH 15 0
BBX 16 18 2 0
BITMAP
E007
E006
600C
601C
6018
7038
7030
7060
30E0
30C0
31C0
3180
3300
3B00
1E00
1E00
1C00
1800
ENDCHAR
STARTCHAR W
ENCODING 87
SWIDTH 972 0
DWIDTH 23 0
BBX 24 18 2 0
BITMAP
C03807
C03806
C0780C
C0780C
C0D818
C0D818
C19830
E19C30
E31C60
E31C60
661CC0
6E0CC0
6C0D80
780D80
780F00
700F00
700E00
600E00
ENDCHAR
STARTCHAR X
ENCODING 88
SWIDTH 660 0
DWIDTH 16 0
BBX 19 18 -2 0
BITMAP
0E00E0
0701C0
070380
038700
038E00
019C00
01F800
00F000
00E000
00E000
01F000
03B000
073800
0E1800
1C1C00
380C00
700E00
E00E00
ENDCHAR
STARTCHAR Y
ENCODING 89
SWIDTH 613 0
DWIDTH 15 0
BBX 15 18 2 0
BITMAP
E00E
601C
7038
7030
3060
38E0
19C0
1B80
1F00
0E00
0E00
0C00
0C00
1C00
1C00
1800
1800
1800
ENDCHAR
STARTCHAR Z
ENCODING 90
SWIDTH 620 0
DWIDTH 15 0
BBX 18 18 -2 0
BITMAP
07FFC0
07FF80
000700
000E00
001C00
001800
003000
007000
00E000
01C000
038000
030000
060000
0E0000
1C0000
380000
7FFC00
FFFC00
ENDCHAR
STARTCHAR bracketleft
ENCODING 91
SWIDTH 308 0
DWIDTH 7 0
BBX 10 23 -1 -5
BITMAP
07C0
07C0
0600
0E00
0C00
0C00
0C00
1C00
1C00
1800
1800
1800
3800
3000
3000
3000
3000
7000
6000
6000
6000
F800
F800
ENDCHAR
STARTCHAR backslash
ENCODING 92
SWIDTH 278 0
DWIDTH 7 0
BBX 3 21 2 -2
BITMAP
C0
C0
C0
C0
C0
C0
C0
C0
C0
C0
C0
40
40
60
60
60
60
60
60
60
60
ENDCHAR
STARTCHAR bracketright
ENCODING 93
SWIDTH 308 0
DWIDTH 7 0
BBX 10 23 -2 -5
BITMAP
07C0
07C0
0180
0180
0180
0380
0300
0300
0300
0300
0700
0600
0600
0600
0E00
0E00
0C00
0C00
0C00
1C00
1800
F800
F800
ENDCHAR
STARTCHAR asciicircum
ENCODING 94
SWIDTH 1000 0
DWIDTH 24 0
BBX 14 6 5 11
BITMAP
03C0
07C0
0EE0
3870
7038
C01C
ENDCHAR
STARTCHAR underscore
ENCODING 95
SWIDTH 500 0
DWIDTH 12 0
BBX 13 2 0 -6
BITMAP
7FF8
FFF0
ENDCHAR
STARTCHAR grave
ENCODING 96
SWIDTH 500 0
DWIDTH 12 0
BBX 4 4 3 14
BITMAP
E0
60
20
30
ENDCHAR
STARTCHAR a
ENCODING 97
SWIDTH 664 0
DWIDTH 16 0
BBX 15 13 1 0
BITMAP
07C6
1FFE
3C3C
301C
601C
601C
E018
E018
E018
E038
70F8
3FB0
1F30
ENDCHAR
STARTCHAR b
ENCODING 98
SWIDTH 664 0
DWIDTH 16 0
BBX 15 18 0 0
BITMAP
0C00
0C00
0C00
1C00
1800
19F8
1BFC
1E1E
3C0E
3806
3006
3006
7006
700C
701C
7838
6FF0
E7C0
ENDCHAR
STARTCHAR c
ENCODING 99
SWIDTH 536 0
DWIDTH 13 0
BBX 12 13 1 0
BITMAP
07C0
0FF0
3860
3000
6000
6000
E000
C000
C000
E000
7080
7FC0
1F00
ENDCHAR
STARTCHAR d
ENCODING 100
SWIDTH 674 0
DWIDTH 16 0
BBX 16 18 0 0
BITMAP
0007
0006
0006
0006
0006
07CE
1FFC
383C
701C
601C
C01C
C018
C018
C038
E078
F0F0
7FF0
3F30
ENDCHAR
STARTCHAR e
ENCODING 101
SWIDTH 625 0
DWIDTH 15 0
BBX 13 13 1 0
BITMAP
07E0
0FF0
3C70
3038
6018
6018
FFF8
FFF8
C000
E020
7070
3FC0
1F00
ENDCHAR
STARTCHAR f
ENCODING 102
SWIDTH 309 0
DWIDTH 7 0
BBX 8 18 0 0
BITMAP
07
0F
1C
18
18
7E
7C
30
30
30
30
70
60
60
60
60
E0
C0
ENDCHAR
STARTCHAR g
ENCODING 103
SWIDTH 664 0
DWIDTH 16 0
BBX 17 18 0 -5
BITMAP
01F180
07FF80
0F0F00
1C0700
180700
380700
300600
300600
300E00
380E00
1C3E00
1FEC00
07CC00
001C00
603800
F07000
7FE000
1F8000
ENDCHAR
STARTCHAR h
ENCODING 104
SWIDTH 593 0
DWIDTH 14 0
BBX 12 18 0 0
BITMAP
0C00
0C00
1C00
1800
1800
1BE0
1FE0
3C70
3830
3030
3030
3030
7060
6060
6060
6060
E060
C0E0
ENDCHAR
STARTCHAR i
ENCODING 105
SWIDTH 250 0
DWIDTH 6 0
BBX 7 18 0 0
BITMAP
0E
0E
0C
00
00
00
18
18
38
38
30
30
70
70
60
60
60
E0
ENDCHAR
STARTCHAR j
ENCODING 106
SWIDTH 259 0
DWIDTH 6 0
BBX 9 23 -2 -5
BITMAP
0380
0380
0300
0000
0000
0100
0600
0600
0600
0E00
0E00
0C00
0C00
0C00
1C00
1800
1800
1800
1800
3800
3000
E000
C000
ENDCHAR
STARTCHAR k
ENCODING 107
SWIDTH 542 0
DWIDTH 13 0
BBX 13 18 0 0
BITMAP
0C00
0C00
1C00
1800
1800
1808
1870
30C0
3180
3700
3C00
7C00
6C00
6600
6700
6380
E180
C1C0
ENDCHAR
STARTCHAR l
ENCODING 108
SWIDTH 250 0
DWIDTH 6 0
BBX 6 18 0 0
BITMAP
0C
1C
18
18
18
18
38
30
30
30
30
70
60
60
60
60
E0
C0
ENDCHAR
STARTCHAR m
ENCODING 109
SWIDTH 907 0
DWIDTH 22 0
BBX 20 13 0 0
BITMAP
19E3E0
1FF7E0
3C7C70
383830
303030
303030
303030
707060
606060
606060
606060
606060
E0E0E0
ENDCHAR
STARTCHAR n
ENCODING 110
SWIDTH 593 0
DWIDTH 14 0
BBX 13 13 0 0
BITMAP
19F0
1FF0
1C38
3818
3818
3018
3018
7030
7030
6030
6030
6030
E070
ENDCHAR
STARTCHAR o
ENCODING 111
SWIDTH 618 0
DWIDTH 15 0
BBX 13 13 1 0
BITMAP
07C0
0FF0
3870
3038
6018
E018
C038
C030
C030
E060
70E0
7F80
1F00
ENDCHAR
STARTCHAR p
ENCODING 112
SWIDTH 664 0
DWIDTH 16 0
BBX 16 18 0 -5
BITMAP
0C7C
0DFE
0F0F
1E07
1C03
1803
1803
1803
3806
380E
3C1C
37F8
73E0
6000
6000
6000
6000
E000
ENDCHAR
STARTCHAR q
ENCODING 113
SWIDTH 664 0
DWIDTH 16 0
BBX 15 18 1 -5
BITMAP
07C6
1FFE
3C3C
301C
601C
601C
E018
E018
E018
E038
70F8
3FB0
1F30
0030
0030
0070
0060
0060
ENDCHAR
STARTCHAR r
ENCODING 114
SWIDTH 356 0
DWIDTH 9 0
BBX 9 13 0 0
BITMAP
1B80
1F80
3C00
3800
3000
3000
7000
6000
6000
6000
6000
E000
C000
ENDCHAR
STARTCHAR s
ENCODING 115
SWIDTH 468 0
DWIDTH 11 0
BBX 10 13 0 0
BITMAP
0780
1FC0
18C0
30C0
3000
3C00
1F00
0380
0180
E180
E380
7F00
3C00
ENDCHAR
STARTCHAR t
ENCODING 116
SWIDTH 315 0
DWIDTH 8 0
BBX 7 16 1 0
BITMAP
18
18
18
7E
FE
30
30
30
70
60
60
60
E0
E0
F0
70
ENDCHAR
STARTCHAR u
ENCODING 117
SWIDTH 579 0
DWIDTH 14 0
BBX 13 13 1 0
BITMAP
7038
6030
6030
6030
6070
E060
C060
C060
C0E0
C0C0
E3C0
7F80
3E00
ENDCHAR
STARTCHAR v
ENCODING 118
SWIDTH 560 0
DWIDTH 13 0
BBX 13 13 1 0
BITMAP
E038
E030
6060
60E0
60C0
7180
3180
3300
3300
3600
3C00
1C00
1800
ENDCHAR
STARTCHAR w
ENCODING 119
SWIDTH 843 0
DWIDTH 20 0
BBX 20 13 1 0
BITMAP
E06070
E0E060
60A0C0
61B0C0
613180
633180
663300
763300
3C3600
3C3400
383C00
381800
301800
ENDCHAR
STARTCHAR x
ENCODING 120
SWIDTH 551 0
DWIDTH 13 0
BBX 16 13 -1 0
BITMAP
1C0F
0E1C
0618
0730
0360
03C0
0180
03C0
06E0
0C60
1870
3830
F038
ENDCHAR
STARTCHAR y
ENCODING 121
SWIDTH 556 0
DWIDTH 13 0
BBX 14 18 1 -5
BITMAP
601C
7018
7030
3070
3060
30C0
39C0
3980
1B00
1B00
1E00
1E00
1C00
1800
3800
3000
6000
E000
ENDCHAR
STARTCHAR z
ENCODING 122
SWIDTH 477 0
DWIDTH 11 0
BBX 13 13 -1 0
BITMAP
1FF8
1FF0
00E0
00C0
0180
0300
0700
0600
0C00
1800
3000
7FC0
FFC0
ENDCHAR
STARTCHAR braceleft
ENCODING 123
SWIDTH 500 0
DWIDTH 12 0
BBX 11 22 2 -5
BITMAP
01E0
03E0
0700
0700
0600
0600
0E00
0E00
0C00
1C00
F800
F800
3800
1800
1800
1800
3800
3800
3000
3800
3E00
1C00
ENDCHAR
STARTCHAR bar
ENCODING 124
SWIDTH 500 0
DWIDTH 12 0
BBX 8 24 2 -6
BITMAP
07
06
06
06
06
0E
0C
0C
0C
1C
18
18
18
18
38
30
30
30
70
60
60
60
60
E0
ENDCHAR
STARTCHAR braceright
ENCODING 125
SWIDTH 500 0
DWIDTH 12 0
BBX 11 22 -1 -5
BITMAP
0780
07C0
01C0
01C0
01C0
0180
0380
0380
0380
0380
01E0
01E0
0780
0700
0600
0E00
0E00
0E00
0C00
1C00
7800
F000
ENDCHAR
STARTCHAR asciitilde
ENCODING 126
SWIDTH 833 0
DWIDTH 20 0
BBX 17 4 1 5
BITMAP
0E0080
3FC300
61FE00
803800
ENDCHAR
STARTCHAR char007f
ENCODING 127
SWIDTH 500 0
DWIDTH 255 0
BBX 0 0 -4 -6
BITMAP
ENDCHAR
STARTCHAR Adieresis
ENCODING 128
SWIDTH 727 0
DWIDTH 17 0
BBX 18 23 -3 0
BITMAP
001980
003980
001100
000000
000000
001C00
001C00
003C00
003E00
006E00
00E600
00C600
01C700
038700
030700
070300
0E0300
0FFF80
1FFF80
380380
300380
700180
E001C0
ENDCHAR
STARTCHAR Aring
ENCODING 129
SWIDTH 727 0
DWIDTH 17 0
BBX 18 25 -3 0
BITMAP
000F00
001980
001180
001180
001300
000E00
000000
001C00
001C00
003C00
003E00
006E00
00E600
00C600
01C700
038700
030700
070300
0E0300
0FFF80
1FFF80
380380
380380
700180
E001C0
ENDCHAR
STARTCHAR Ccedilla
ENCODING 130
SWIDTH 750 0
DWIDTH 18 0
BBX 18 25 1 -6
BITMAP
00FE00
03FF80
0783C0
0E0100
1C0000
380000
700000
700000
600000
E00000
E00000
E00000
E00000
E00000
700000
700400
3C1E00
1FFC00
0FF000
010000
01C000
00C000
004000
08C000
0F8000
ENDCHAR
STARTCHAR Eacute
ENCODING 131
SWIDTH 569 0
DWIDTH 14 0
BBX 14 24 -1 0
BITMAP
0018
0030
0060
00C0
0000
0000
0FFC
0FF8
0C00
1C00
1C00
1800
1800
3800
3FF0
3FF0
3000
3000
7000
7000
6000
6000
7FC0
FFC0
ENDCHAR
STARTCHAR Ntilde
ENCODING 132
SWIDTH 773 0
DWIDTH 19 0
BBX 19 23 -1 0
BITMAP
003100
007E00
004000
000000
000000
0E00E0
0E00C0
0F00C0
1B00C0
1B81C0
1981C0
19C180
38C180
38E180
306380
307300
303300
703B00
701B00
601F00
600E00
600E00
E00600
ENDCHAR
STARTCHAR Odieresis
ENCODING 133
SWIDTH 891 0
DWIDTH 21 0
BBX 20 23 0 0
BITMAP
003300
007300
003300
000000
007E00
03FF80
0783C0
0E00E0
1C00E0
380070
700070
700070
600070
E00070
E00060
E000E0
E000E0
E001C0
700380
700700
3C1E00
1FFC00
07F000
ENDCHAR
STARTCHAR Udieresis
ENCODING 134
SWIDTH 748 0
DWIDTH 18 0
BBX 17 23 1 0
BITMAP
018C00
019C00
019800
000000
000000
380380
300300
300300
300300
700700
600700
600600
600600
600E00
E00E00
C00C00
C00C00
C01C00
C01800
E03800
70F000
7FE000
1F8000
ENDCHAR
STARTCHAR aacute
ENCODING 135
SWIDTH 664 0
DWIDTH 16 0
BBX 15 18 0 0
BITMAP
0030
0060
00C0
0100
0000
07C6
1FFE
3C3C
301C
601C
601C
E018
E018
E018
E038
70F8
3FB0
1F30
ENDCHAR
STARTCHAR agrave
ENCODING 136
SWIDTH 664 0
DWIDTH 16 0
BBX 15 18 0 0
BITMAP
0380
0180
00C0
0040
0000
07C6
1FFE
3C3C
301C
601C
601C
E018
E018
E018
E038
70F8
3FB0
1F30
ENDCHAR
STARTCHAR acircumflex
ENCODING 137
SWIDTH 664 0
DWIDTH 16 0
BBX 15 18 0 0
BITMAP
00E0
01E0
0320
0630
0000
07C6
1FFE
3C3C
301C
601C
601C
E018
E018
E018
E038
70F8
3FB0
1F30
ENDCHAR
STARTCHAR adieresis
ENCODING 138
SWIDTH 664 0
DWIDTH 16 0
BBX 15 17 0 0
BITMAP
0330
0730
0230
0000
07C6
1FFE
3C3C
301C
601C
601C
E018
E018
E018
E038
70F8
3FB0
1F30
ENDCHAR
STARTCHAR atilde
ENCODING 139
SWIDTH 664 0
DWIDTH 16 0
BBX 15 17 0 0
BITMAP
0190
03E0
0400
0000
07C6
1FFE
3C3C
301C
601C
601C
E018
E018
E018
E038
70F8
3FB0
1F30
ENDCHAR
STARTCHAR aring
ENCODING 140
SWIDTH 664 0
DWIDTH 16 0
BBX 15 20 0 0
BITMAP
00F0
0190
0110
0310
0330
01E0
0000
07C6
1FFE
3C3C
301C
601C
601C
E018
E018
E018
E038
70F8
3FB0
1F30
ENDCHAR
STARTCHAR ccedilla
ENCODING 141
SWIDTH 536 0
DWIDTH 13 0
BBX 12 19 1 -6
BITMAP
07C0
0FF0
3860
3000
6000
6000
E000
C000
C000
E000
7080
7FC0
3F00
0800
0E00
0300
0300
2200
3E00
ENDCHAR
STARTCHAR eacute
ENCODING 142
SWIDTH 625 0
DWIDTH 15 0
BBX 14 18 0 0
BITMAP
0038
0020
0040
0080
0000
03F0
0FF8
1C18
300C
600C
7FFC
FFFC
E000
E000
E010
7078
3FE0
1F80
ENDCHAR
STARTCHAR egrave
ENCODING 143
SWIDTH 625 0
DWIDTH 15 0
BBX 14 18 0 0
BITMAP
01C0
00C0
0040
0060
0000
03F0
0FF8
1C18
300C
600C
7FFC
FFFC
E000
E000
E010
7078
3FE0
1F80
ENDCHAR
STARTCHAR ecircumflex
ENCODING 144
SWIDTH 625 0
DWIDTH 15 0
BBX 14 18 0 0
BITMAP
00F0
00F0
0110
0218
0000
03F0
0FF8
1C18
300C
600C
7FFC
FFFC
E000
E000
E010
7078
3FE0
1F80
ENDCHAR
STARTCHAR edieresis
ENCODING 145
SWIDTH 625 0
DWIDTH 15 0
BBX 14 17 0 0
BITMAP
0198
0398
0318
0000
03F0
0FF8
1C18
300C
600C
7FFC
FFFC
E000
E000
E010
7078
3FE0
1F80
ENDCHAR
STARTCHAR iacute
ENCODING 146
SWIDTH 250 0
DWIDTH 6 0
BBX 8 18 0 0
BITMAP
07
0C
08
10
00
00
18
30
30
30
30
70
60
60
60
60
E0
C0
ENDCHAR
STARTCHAR igrave
ENCODING 147
SWIDTH 250 0
DWIDTH 6 0
BBX 6 18 0 0
BITMAP
38
18
08
0C
00
00
18
38
30
30
30
30
60
60
60
60
E0
C0
ENDCHAR
STARTCHAR icircumflex
ENCODING 148
SWIDTH 250 0
DWIDTH 6 0
BBX 8 18 0 0
BITMAP
0E
1E
32
63
00
00
18
38
30
30
30
30
70
60
60
60
60
E0
ENDCHAR
STARTCHAR idieresis
ENCODING 149
SWIDTH 250 0
DWIDTH 6 0
BBX 8 17 0 0
BITMAP
33
77
66
00
00
18
38
30
30
30
30
60
60
60
60
E0
C0
ENDCHAR
STARTCHAR ntilde
ENCODING 150
SWIDTH 593 0
DWIDTH 14 0
BBX 12 17 0 0
BITMAP
01D0
03F0
0000
0000
1BE0
1FE0
3C70
3830
3030
3030
7030
6060
6060
6060
6060
E060
C0E0
ENDCHAR
STARTCHAR oacute
ENCODING 151
SWIDTH 618 0
DWIDTH 15 0
BBX 13 18 0 0
BITMAP
0070
00C0
0080
0100
0000
07C0
0FF0
3870
3038
6018
E018
C038
C030
C030
E060
70E0
7F80
1F00
ENDCHAR
STARTCHAR ograve
ENCODING 152
SWIDTH 618 0
DWIDTH 15 0
BBX 13 18 0 0
BITMAP
0300
0180
0080
00C0
0000
07C0
0FF0
3870
3038
6018
E018
C038
C030
C030
E060
70E0
7F80
1F00
ENDCHAR
STARTCHAR ocircumflex
ENCODING 153
SWIDTH 618 0
DWIDTH 15 0
BBX 13 18 0 0
BITMAP
01C0
0160
0260
0420
0000
07C0
0FF0
3870
3038
6018
E018
C038
C030
C030
E060
70E0
7F80
1F00
ENDCHAR
STARTCHAR odieresis
ENCODING 154
SWIDTH 618 0
DWIDTH 15 0
BBX 13 17 0 0
BITMAP
0330
0770
0000
0000
07C0
0FF0
3870
3038
6018
E018
C038
C030
C030
E060
70E0
7F80
1F00
ENDCHAR
STARTCHAR otilde
ENCODING 155
SWIDTH 618 0
DWIDTH 15 0
BBX 13 17 0 0
BITMAP
0190
07E0
0000
0000
07C0
0FF0
3870
3038
6018
E018
C038
C030
C030
E060
70E0
7F80
1F00
ENDCHAR
STARTCHAR uacute
ENCODING 156
SWIDTH 579 0
DWIDTH 14 0
BBX 13 18 1 0
BITMAP
0060
00C0
0180
0300
0000
7038
7030
6030
6030
6070
6070
C060
C060
C0E0
C0C0
E3C0
7F80
3E00
ENDCHAR
STARTCHAR ugrave
ENCODING 157
SWIDTH 579 0
DWIDTH 14 0
BBX 13 18 1 0
BITMAP
0700
0300
0180
0180
0000
7038
7030
6030
6030
6070
6070
C060
C060
C0E0
C0C0
E3C0
7F80
3E00
ENDCHAR
STARTCHAR ucircumflex
ENCODING 158
SWIDTH 579 0
DWIDTH 14 0
BBX 13 18 1 0
BITMAP
01C0
03C0
0660
0C60
0000
7038
7030
6030
6030
6070
6070
C060
C060
C0E0
C0C0
E3C0
7F80
3E00
ENDCHAR
STARTCHAR udieresis
ENCODING 159
SWIDTH 579 0
DWIDTH 14 0
BBX 13 17 1 0
BITMAP
0660
0E70
0C60
0000
0000
7038
6030
6030
6070
6070
C060
C060
C0E0
C0C0
E3C0
7F80
3E00
ENDCHAR
STARTCHAR dagger
ENCODING 160
SWIDTH 500 0
DWIDTH 12 0
BBX 10 20 2 -1
BITMAP
0600
0600
0600
0400
64C0
FF80
8840
0800
1800
1800
1800
1800
1000
3000
3000
2000
2000
2000
2000
4000
ENDCHAR
STARTCHAR degree
ENCODING 161
SWIDTH 329 0
DWIDTH 8 0
BBX 8 7 0 10
BITMAP
1E
63
41
C1
C1
66
3C
ENDCHAR
STARTCHAR cent
ENCODING 162
SWIDTH 556 0
DWIDTH 13 0
BBX 12 20 1 -1
BITMAP
0080
0180
0100
0180
0FE0
3DF0
3320
6200
6200
C200
C600
C600
C400
E480
7FC0
3F80
0C00
0800
0800
0800
ENDCHAR
STARTCHAR sterling
ENCODING 163
SWIDTH 556 0
DWIDTH 13 0
BBX 13 18 0 0
BITMAP
03E0
07F0
0C38
1818
1818
1800
1800
1C00
3F80
7F80
0C00
0C00
0C00
1800
3000
7F20
FFE0
43E0
ENDCHAR
STARTCHAR section
ENCODING 164
SWIDTH 500 0
DWIDTH 12 0
BBX 11 20 0 -1
BITMAP
0380
07E0
0CC0
0C00
0C00
0E00
3F00
3780
7380
71C0
38C0
38C0
1F80
0F00
0E00
0700
0700
6600
FE00
3800
ENDCHAR
STARTCHAR bullet
ENCODING 165
SWIDTH 590 0
DWIDTH 14 0
BBX 7 7 3 5
BITMAP
1C
7E
7E
FE
FC
FC
78
ENDCHAR
STARTCHAR paragraph
ENCODING 166
SWIDTH 500 0
DWIDTH 12 0
BBX 12 17 1 0
BITMAP
1FF0
3E40
7CC0
FCC0
FC80
FC80
7C80
3980
0980
1900
1900
1300
1300
1300
3200
3200
2600
ENDCHAR
STARTCHAR germandbls
ENCODING 167
SWIDTH 616 0
DWIDTH 15 0
BBX 13 18 0 0
BITMAP
01E0
07F0
0E38
0C18
1C10
7830
7860
19E0
39F0
3038
3018
3018
7018
7038
6030
6070
6FE0
FF80
ENDCHAR
STARTCHAR registered
ENCODING 168
SWIDTH 833 0
DWIDTH 20 0
BBX 18 17 1 0
BITMAP
01FC00
060700
080180
33F880
231CC0
631CC0
431CC0
C318C0
C7F0C0
866080
866080
C67100
CE3300
400600
600C00
383800
0FC000
ENDCHAR
STARTCHAR copyright
ENCODING 169
SWIDTH 833 0
DWIDTH 20 0
BBX 18 17 1 0
BITMAP
01FC00
060700
080180
11F080
2318C0
671CC0
461C40
460040
CC00C0
8C0080
8C1880
CE3100
C7E300
43C600
600C00
383800
0FC000
ENDCHAR
STARTCHAR trademark
ENCODING 170
SWIDTH 833 0
DWIDTH 20 0
BBX 15 6 3 11
BITMAP
FDCE
314C
2154
2154
636C
634C
ENDCHAR
STARTCHAR acute
ENCODING 171
SWIDTH 500 0
DWIDTH 12 0
BBX 6 4 4 14
BITMAP
1C
30
60
C0
ENDCHAR
STARTCHAR dieresis
ENCODING 172
SWIDTH 500 0
DWIDTH 12 0
BBX 7 3 2 14
BITMAP
66
EE
CC
ENDCHAR
STARTCHAR notequal
ENCODING 173
SWIDTH 500 0
DWIDTH 255 0
BBX 0 0 -4 -6
BITMAP
ENDCHAR
STARTCHAR AE
ENCODING 174
SWIDTH 884 0
DWIDTH 21 0
BBX 24 18 -3 0
BITMAP
0007FF
000FFE
001B00
001B00
003300
006700
00E600
00C600
0187FC
038FFC
030E00
060C00
0FFC00
1FFC00
181C00
301800
701FF0
E01FF0
ENDCHAR
STARTCHAR Oslash
ENCODING 175
SWIDTH 891 0
DWIDTH 21 0
BBX 20 22 0 -2
BITMAP
000030
007E60
03FFC0
0783C0
0E03E0
1C06E0
380C70
300870
701870
603070
606070
60C060
6180E0
6100C0
6301C0
760380
7C0700
3C1E00
3FFC00
67E000
C00000
400000
ENDCHAR
STARTCHAR infinity
ENCODING 176
SWIDTH 500 0
DWIDTH 255 0
BBX 0 0 -4 -6
BITMAP
ENDCHAR
STARTCHAR plusminus
ENCODING 177
SWIDTH 833 0
DWIDTH 20 0
BBX 17 14 1 0
BITMAP
006000
006000
006000
006000
3FFF80
3FFF00
00C000
00C000
00C000
018000
000000
000000
7FFE00
FFFE00
ENDCHAR
STARTCHAR lessequal
ENCODING 178
SWIDTH 500 0
DWIDTH 255 0
BBX 0 0 -4 -6
BITMAP
ENDCHAR
STARTCHAR greaterequal
ENCODING 179
SWIDTH 500 0
DWIDTH 255 0
BBX 0 0 -4 -6
BITMAP
ENDCHAR
STARTCHAR yen
ENCODING 180
SWIDTH 556 0
DWIDTH 13 0
BBX 17 18 -1 0
BITMAP
180380
1C0700
1C0E00
0C0C00
0E1800
063800
7E7F00
076000
03C000
03C000
FFFE00
030000
030000
030000
030000
070000
060000
060000
ENDCHAR
STARTCHAR mu
ENCODING 181
SWIDTH 590 0
DWIDTH 14 0
BBX 18 18 -3 -5
BITMAP
01C1C0
018180
038380
038300
030700
070700
060600
0E0E00
0E0C00
0E1C00
1E3C00
1FFE00
3BDC00
380000
300000
700000
600000
E00000
ENDCHAR
STARTCHAR partialdiff
ENCODING 182
SWIDTH 500 0
DWIDTH 255 0
BBX 0 0 -4 -6
BITMAP
ENDCHAR
STARTCHAR summation
ENCODING 183
SWIDTH 500 0
DWIDTH 255 0
BBX 0 0 -4 -6
BITMAP
ENDCHAR
STARTCHAR product
ENCODING 184
SWIDTH 500 0
DWIDTH 255 0
BBX 0 0 -4 -6
BITMAP
ENDCHAR
STARTCHAR pi
ENCODING 185
SWIDTH 500 0
DWIDTH 255 0
BBX 0 0 -4 -6
BITMAP
ENDCHAR
STARTCHAR integral
ENCODING 186
SWIDTH 500 0
DWIDTH 255 0
BBX 0 0 -4 -6
BITMAP
ENDCHAR
STARTCHAR ordfeminine
ENCODING 187
SWIDTH 498 0
DWIDTH 12 0
BBX 11 10 0 9
BITMAP
1F60
31E0
60C0
40C0
C0C0
C0C0
C0C0
C180
6380
3D80
ENDCHAR
STARTCHAR ordmasculine
ENCODING 188
SWIDTH 464 0
DWIDTH 11 0
BBX 10 10 0 9
BITMAP
1F00
3180
60C0
40C0
C0C0
C0C0
C080
C180
6300
3E00
ENDCHAR
STARTCHAR Omega
ENCODING 189
SWIDTH 500 0
DWIDTH 255 0
BBX 0 0 -4 -6
BITMAP
ENDCHAR
STARTCHAR ae
ENCODING 190
SWIDTH 1072 0
DWIDTH 26 0
BBX 24 13 1 0
BITMAP
07E4FC
1FF5FE
3C3F0E
301E07
701C03
600C03
E01FFF
E01FFF
E01800
E03804
70FE0E
3FB7F8
1F33F0
ENDCHAR
STARTCHAR oslash
ENCODING 191
SWIDTH 618 0
DWIDTH 15 0
BBX 15 17 0 -2
BITMAP
0006
000C
03E8
0FF0
1C38
387C
30DC
619C
631C
6618
6C38
6830
30E0
3FC0
6F00
C000
8000
ENDCHAR
STARTCHAR questiondown
ENCODING 192
SWIDTH 491 0
DWIDTH 12 0
BBX 11 19 -1 0
BITMAP
00C0
01E0
00C0
0000
0000
0180
0180
0380
0700
0E00
3C00
7800
6000
C000
C0E0
C1C0
E380
7F00
3E00
ENDCHAR
STARTCHAR exclamdown
ENCODING 193
SWIDTH 278 0
DWIDTH 7 0
BBX 7 19 0 0
BITMAP
0E
0E
0C
00
00
1C
18
18
38
38
30
30
30
70
70
60
60
60
E0
ENDCHAR
STARTCHAR logicalnot
ENCODING 194
SWIDTH 833 0
DWIDTH 20 0
BBX 15 6 3 4
BITMAP
7FFE
FFFC
000C
000C
000C
000C
ENDCHAR
STARTCHAR radical
ENCODING 195
SWIDTH 500 0
DWIDTH 255 0
BBX 0 0 -4 -6
BITMAP
ENDCHAR
STARTCHAR florin
ENCODING 196
SWIDTH 556 0
DWIDTH 13 0
BBX 19 23 -4 -5
BITMAP
0001E0
0007C0
000600
000C00
000C00
001800
001800
00FF00
01FE00
003000
006000
006000
00C000
00C000
01C000
018000
038000
030000
070000
060000
0E0000
7C0000
F00000
ENDCHAR
STARTCHAR guillemotleft
ENCODING 199
SWIDTH 514 0
DWIDTH 12 0
BBX 11 9 1 2
BITMAP
1CE0
39C0
3180
6300
C600
E700
6300
6300
3180
ENDCHAR
STARTCHAR guillemotright
ENCODING 200
SWIDTH 514 0
DWIDTH 12 0
BBX 11 9 -1 2
BITMAP
3180
18C0
18C0
1CE0
0C60
18C0
3180
7300
E700
ENDCHAR
STARTCHAR ellipsis
ENCODING 201
SWIDTH 1000 0
DWIDTH 24 0
BBX 19 3 2 0
BITMAP
6060E0
E0E0E0
E0C0C0
ENDCHAR
STARTCHAR nbspace
ENCODING 202
SWIDTH 556 0
DWIDTH 13 0
BBX 0 0 0 -6
BITMAP
ENDCHAR
STARTCHAR Agrave
ENCODING 203
SWIDTH 727 0
DWIDTH 17 0
BBX 18 24 -3 0
BITMAP
001C00
000C00
000400
000600
000000
000000
001C00
001C00
003C00
003E00
006E00
00E600
00C600
018700
038700
030700
070300
0E0300
0FFF80
1FFF80
380380
300380
700180
E001C0
ENDCHAR
STARTCHAR Atilde
ENCODING 204
SWIDTH 727 0
DWIDTH 17 0
BBX 18 23 -3 0
BITMAP
000C80
001F80
002000
000000
000000
001C00
001C00
003C00
003E00
006E00
00E600
00C600
01C700
038700
030700
070300
0E0300
0FFF80
1FFF80
380380
300380
700180
E001C0
ENDCHAR
STARTCHAR Otilde
ENCODING 205
SWIDTH 891 0
DWIDTH 21 0
BBX 20 23 0 0
BITMAP
001980
003F00
004000
000000
007E00
03FF80
0783C0
0E00E0
1C00E0
380070
700070
700070
600070
E00070
E00060
E000E0
E000E0
E001C0
700380
700700
3C1E00
1FFC00
07F000
ENDCHAR
STARTCHAR OE
ENCODING 206
SWIDTH 1185 0
DWIDTH 28 0
BBX 28 19 1 0
BITMAP
003C0000
01FF3FF0
07C7BFE0
0F03F000
1C01F000
3800F000
3800F000
70006000
60006000
60007FC0
E000FFC0
E000C000
E000C000
E001C000
E003C000
7007C000
780F8000
3FF9FF00
0FF1FF00
ENDCHAR
STARTCHAR oe
ENCODING 207
SWIDTH 1060 0
DWIDTH 25 0
BBX 24 13 1 0
BITMAP
07C0FC
1FF3FE
383706
703E03
601C03
601803
C01FFF
C01FFF
C03800
C07804
E0FC1E
7F8FF8
3F03E0
ENDCHAR
STARTCHAR endash
ENCODING 208
SWIDTH 500 0
DWIDTH 12 0
BBX 13 2 0 6
BITMAP
FFF8
FFF8
ENDCHAR
STARTCHAR emdash
ENCODING 209
SWIDTH 1000 0
DWIDTH 24 0
BBX 25 2 0 6
BITMAP
FFFFFF80
FFFFFF80
ENDCHAR
STARTCHAR quotedblleft
ENCODING 210
SWIDTH 491 0
DWIDTH 12 0
BBX 11 7 0 12
BITMAP
0C60
18C0
18C0
3180
7380
E700
6300
ENDCHAR
STARTCHAR quotedblright
ENCODING 211
SWIDTH 491 0
DWIDTH 12 0
BBX 11 7 0 12
BITMAP
18C0
1CE0
39C0
3180
6300
6300
C600
ENDCHAR
STARTCHAR quoteleft
ENCODING 212
SWIDTH 278 0
DWIDTH 7 0
BBX 6 7 0 12
BITMAP
0C
18
18
30
70
E0
60
ENDCHAR
STARTCHAR quoteright
ENCODING 213
SWIDTH 278 0
DWIDTH 7 0
BBX 6 7 0 12
BITMAP
18
1C
38
30
60
60
C0
ENDCHAR
STARTCHAR divide
ENCODING 214
SWIDTH 833 0
DWIDTH 20 0
BBX 15 12 3 1
BITMAP
00C0
01C0
0180
0000
0000
FFFE
FFFE
0000
0000
0300
0700
0700
ENDCHAR
STARTCHAR ydieresis
ENCODING 216
SWIDTH 556 0
DWIDTH 13 0
BBX 14 22 1 -5
BITMAP
0660
0660
0220
0000
0004
7018
7038
7030
3060
30E0
38C0
3980
1B80
1B00
1E00
1E00
1C00
1800
3800
3000
6000
E000
ENDCHAR
STARTCHAR Ydieresis
ENCODING 217
SWIDTH 613 0
DWIDTH 15 0
BBX 15 23 1 0
BITMAP
0630
0670
0220
0000
0000
E00E
601C
7038
7070
3060
38C0
19C0
1B80
1F00
0E00
0E00
0C00
0C00
1C00
1C00
1800
1800
1800
ENDCHAR
STARTCHAR currency
ENCODING 219
SWIDTH 606 0
DWIDTH 15 0
BBX 15 13 0 4
BITMAP
1004
300E
1BDC
1FF8
0C70
1830
3030
3030
3060
38C0
3FE0
6770
8030
ENDCHAR
STARTCHAR guilsinglleft
ENCODING 220
SWIDTH 322 0
DWIDTH 8 0
BBX 6 9 1 2
BITMAP
1C
38
30
60
C0
E0
60
60
30
ENDCHAR
STARTCHAR guilsinglright
ENCODING 221
SWIDTH 322 0
DWIDTH 8 0
BBX 6 9 0 2
BITMAP
30
18
18
1C
0C
18
30
70
E0
ENDCHAR
STARTCHAR daggerdbl
ENCODING 224
SWIDTH 500 0
DWIDTH 12 0
BBX 12 20 0 -1
BITMAP
0180
0180
0180
0100
1130
3FF0
2220
0200
0600
0600
0600
0600
0400
4440
7FC0
C880
0800
1800
1800
1800
ENDCHAR
STARTCHAR periodcentered
ENCODING 225
SWIDTH 278 0
DWIDTH 7 0
BBX 3 3 2 7
BITMAP
60
E0
C0
ENDCHAR
STARTCHAR quotesinglbase
ENCODING 226
SWIDTH 278 0
DWIDTH 7 0
BBX 6 7 0 -4
BITMAP
18
1C
38
30
60
60
C0
ENDCHAR
STARTCHAR quotedblbase
ENCODING 227
SWIDTH 491 0
DWIDTH 12 0
BBX 11 7 0 -4
BITMAP
18C0
1CE0
39C0
3180
6300
6300
C600
ENDCHAR
STARTCHAR perthousand
ENCODING 228
SWIDTH 1252 0
DWIDTH 30 0
BBX 27 18 2 0
BITMAP
1E030000
3F060000
63040000
630C0000
C3180000
C6300000
C6300000
7C600000
38C00000
008703C0
019F87C0
0319CC60
0231DC60
06319840
0C3198C0
083398C0
183F1F80
301E0F00
ENDCHAR
STARTCHAR Acircumflex
ENCODING 229
SWIDTH 727 0
DWIDTH 17 0
BBX 18 24 -3 0
BITMAP
000700
000F00
001B00
003180
000000
000000
001C00
001C00
003C00
003E00
006E00
00E600
00C600
018700
038700
030700
070300
0E0300
0FFF80
1FFF80
380380
300380
700180
E001C0
ENDCHAR
STARTCHAR Ecircumflex
ENCODING 230
SWIDTH 569 0
DWIDTH 14 0
BBX 14 24 -1 0
BITMAP
0070
00F0
0198
0118
0200
0000
0FFC
0FF8
0C00
1C00
1C00
1800
1800
3800
3FF0
3FF0
3000
3000
7000
7000
6000
6000
7FC0
FFC0
ENDCHAR
STARTCHAR Aacute
ENCODING 231
SWIDTH 727 0
DWIDTH 17 0
BBX 18 24 -3 0
BITMAP
000180
000300
000600
000C00
000000
000000
001C00
001C00
003C00
003E00
006E00
00E600
00C600
018700
038700
030700
070300
0E0300
0FFF80
1FFF80
380380
300380
700180
E001C0
ENDCHAR
STARTCHAR Edieresis
ENCODING 232
SWIDTH 569 0
DWIDTH 14 0
BBX 14 23 -1 0
BITMAP
0198
019C
0108
0000
0000
0FFC
0FF8
0C00
1C00
1C00
1800
1800
3800
3FF0
3FF0
3000
3000
7000
7000
6000
6000
7FC0
FFC0
ENDCHAR
STARTCHAR Egrave
ENCODING 233
SWIDTH 569 0
DWIDTH 14 0
BBX 14 24 -1 0
BITMAP
00C0
00C0
0060
0060
0000
0000
0FFC
0FF8
0C00
1C00
1C00
1800
1800
3800
3FF0
3FF0
3000
3000
7000
7000
6000
6000
7FC0
FFC0
ENDCHAR
STARTCHAR Iacute
ENCODING 234
SWIDTH 278 0
DWIDTH 7 0
BBX 10 24 -1 0
BITMAP
01C0
0300
0600
0C00
0000
0200
0C00
0C00
0C00
1C00
1C00
1800
1800
3800
3800
3000
3000
3000
7000
7000
6000
6000
6000
E000
ENDCHAR
STARTCHAR Icircumflex
ENCODING 235
SWIDTH 278 0
DWIDTH 7 0
BBX 9 24 -1 0
BITMAP
0700
0F00
1900
3180
0000
0000
0C00
0C00
1C00
1800
1800
1800
1800
3800
3000
3000
3000
7000
7000
6000
6000
6000
E000
E000
ENDCHAR
STARTCHAR Idieresis
ENCODING 236
SWIDTH 278 0
DWIDTH 7 0
BBX 10 23 -1 0
BITMAP
18C0
19C0
0880
0000
0000
0E00
0C00
0C00
1C00
1C00
1800
1800
1800
3800
3800
3000
3000
7000
7000
6000
6000
6000
E000
ENDCHAR
STARTCHAR Igrave
ENCODING 237
SWIDTH 278 0
DWIDTH 7 0
BBX 8 24 -1 0
BITMAP
0C
06
06
03
00
00
0E
0C
0C
1C
1C
1C
18
18
38
38
30
30
70
70
70
60
60
E0
ENDCHAR
STARTCHAR Oacute
ENCODING 238
SWIDTH 891 0
DWIDTH 21 0
BBX 20 24 0 0
BITMAP
000300
000600
000C00
001800
000000
007E00
03FF80
0783C0
0E00E0
1C00E0
380070
700070
700070
600070
E00070
E00060
E000E0
E000E0
E001C0
700380
700700
3C1E00
1FFC00
07F000
ENDCHAR
STARTCHAR Ocircumflex
ENCODING 239
SWIDTH 891 0
DWIDTH 21 0
BBX 20 24 0 0
BITMAP
000E00
001E00
003200
006300
000000
007E00
03FF80
0783C0
0E00E0
1C00E0
380070
700070
700070
600070
E00070
E00060
E000E0
E000E0
E001C0
700380
700700
3C1E00
1FFC00
07F000
ENDCHAR
STARTCHAR Ograve
ENCODING 241
SWIDTH 891 0
DWIDTH 21 0
BBX 20 24 0 0
BITMAP
003800
001800
000C00
000400
000000
007E00
03FF80
0783C0
0E00E0
1C00E0
380070
700070
700070
600070
E00070
E00060
E000E0
E000E0
E001C0
700380
700700
3C1E00
1FFC00
07F000
ENDCHAR
STARTCHAR Uacute
ENCODING 242
SWIDTH 748 0
DWIDTH 18 0
BBX 16 24 1 0
BITMAP
0018
0030
0060
00C0
0000
0000
3007
3006
3006
3006
700E
600E
600C
600C
600C
C01C
C01C
C018
C018
C038
E070
70E0
7FC0
3F00
ENDCHAR
STARTCHAR Ucircumflex
ENCODING 243
SWIDTH 748 0
DWIDTH 18 0
BBX 16 24 1 0
BITMAP
0070
00F0
0190
0318
0000
0000
3007
3006
3006
3006
700E
600E
600C
600C
600C
C01C
C01C
C018
C018
C038
E070
70E0
7FC0
3F00
ENDCHAR
STARTCHAR Ugrave
ENCODING 244
SWIDTH 748 0
DWIDTH 18 0
BBX 16 24 1 0
BITMAP
01C0
00C0
0040
0060
0000
0000
3007
3006
3006
3006
700E
600E
600C
600C
600C
C01C
C01C
C018
C018
C038
E070
70E0
7FC0
3F00
ENDCHAR
STARTCHAR circumflex
ENCODING 246
SWIDTH 500 0
DWIDTH 12 0
BBX 7 4 2 14
BITMAP
1C
3C
64
C6
ENDCHAR
STARTCHAR tilde
ENCODING 247
SWIDTH 500 0
DWIDTH 12 0
BBX 8 2 2 15
BITMAP
3B
DC
ENDCHAR
STARTCHAR macron
ENCODING 248
SWIDTH 500 0
DWIDTH 12 0
BBX 7 2 2 15
BITMAP
FE
FE
ENDCHAR
STARTCHAR cedilla
ENCODING 252
SWIDTH 500 0
DWIDTH 12 0
BBX 7 6 3 -6
BITMAP
10
10
0C
06
84
FC
ENDCHAR
ENDFONT
